<?xml version="1.0" encoding="UTF-8"?>
<svg version="1.1" xmlns="http://www.w3.org/2000/svg" width="128" height="128">
<path d="M0 0 C6.43892333 4.52999521 9.73245741 11.05511001 11.671875 18.62109375 C13.28873821 30.65132599 9.15616086 41.44622434 2.4375 51.2890625 C-4.7797041 60.27586953 -15.5693153 66.25593317 -26.9375 67.8125 C-35.469763 68.42661388 -42.25864503 66.25180729 -49 61 C-54.76473394 55.39539756 -57.14172482 48.04782575 -57.47705078 40.14208984 C-57.61673174 27.48461715 -53.61052787 17.13988655 -45 7.83984375 C-33.36763335 -3.27322082 -14.54015351 -9.36582452 0 0 Z M-46.1875 12.0625 C-53.68146823 20.93110146 -56.01746683 30.97519523 -55.41796875 42.32421875 C-54.51644295 50.25259051 -50.98451096 56.69325293 -45 62 C-39.77469516 65.01459895 -34.02517131 66.2119407 -28 66 C-25.75496799 65.09514196 -25.75496799 65.09514196 -24 64 C-24.70125 63.79246094 -25.4025 63.58492188 -26.125 63.37109375 C-35.49347765 60.32888429 -42.14810108 55.77074035 -47 47 C-50.03491567 39.23677368 -50.61274092 29.96089497 -47.4375 22.125 C-43.0969004 13.97499307 -37.80527106 8.8905349 -29 6 C-21.12063793 3.69384525 -13.46885696 4.92761306 -6 8 C-3 10.1875 -3 10.1875 -1 12 C-0.34 12 0.32 12 1 12 C3.33333333 16.66666667 5.66666667 21.33333333 8 26 C8.66 26 9.32 26 10 26 C9.23172514 17.4297615 8.08927235 10.39573463 2 4 C-14.05869324 -8.62838637 -33.30444667 -1.06090881 -46.1875 12.0625 Z " fill="#21774F" transform="translate(78,28)"/>
<path d="M0 0 C7.61429561 6.19036238 12.33857066 12.9087108 13.984375 22.61328125 C15.07696534 35.79601059 12.02814367 47.99340367 3.984375 58.61328125 C1.11341914 61.76146526 -1.88064895 64.72910328 -5.015625 67.61328125 C-4.4175 67.44828125 -3.819375 67.28328125 -3.203125 67.11328125 C-1.015625 66.61328125 -1.015625 66.61328125 1.984375 66.61328125 C2.479375 65.12828125 2.479375 65.12828125 2.984375 63.61328125 C4.98408331 62.94574014 6.9841398 62.27924191 8.984375 61.61328125 C12.16396376 59.33578956 15.15308237 56.89002573 18.1796875 54.4140625 C20.984375 52.61328125 20.984375 52.61328125 23.3515625 52.84375 C23.89039062 53.09769531 24.42921875 53.35164063 24.984375 53.61328125 C24.77167969 54.93392578 24.77167969 54.93392578 24.5546875 56.28125 C23.42954216 62.67915615 23.42954216 62.67915615 25.25390625 68.58984375 C27.0647908 70.11820846 27.0647908 70.11820846 29.984375 71.61328125 C29.796875 73.42578125 29.796875 73.42578125 28.984375 75.61328125 C24.80580357 78.61328125 24.80580357 78.61328125 21.984375 78.61328125 C22.07976562 79.38414063 22.17515625 80.155 22.2734375 80.94921875 C22.38429688 81.95210938 22.49515625 82.955 22.609375 83.98828125 C22.72539063 84.98601562 22.84140625 85.98375 22.9609375 87.01171875 C22.97253906 88.29949219 22.97253906 88.29949219 22.984375 89.61328125 C22.324375 90.27328125 21.664375 90.93328125 20.984375 91.61328125 C16.04931801 91.35299343 13.4922339 87.14754997 10.3984375 83.7421875 C7.68782423 81.35175994 5.43204484 80.57959998 1.984375 79.61328125 C1.654375 79.28328125 1.324375 78.95328125 0.984375 78.61328125 C-1.92685776 78.5022297 -4.81831081 78.45159639 -7.73046875 78.4375 C-9.55014143 78.41427481 -11.36980289 78.39015643 -13.18945312 78.36523438 C-16.05939944 78.33031543 -18.92894079 78.30089536 -21.79907227 78.28735352 C-42.20498275 78.172206 -42.20498275 78.172206 -50.015625 73.61328125 C-50.68110352 73.24557617 -51.34658203 72.87787109 -52.03222656 72.49902344 C-59.14153708 68.35359449 -62.81274423 60.24538587 -65.015625 52.61328125 C-67.43609264 38.92762961 -64.83175502 26.10654517 -57.015625 14.61328125 C-49.1573509 3.87708659 -38.79020541 -2.19242519 -25.953125 -5.07421875 C-16.60979524 -6.06819 -7.94100131 -5.38399889 0 0 Z M-54.015625 13.61328125 C-61.98997224 24.28483417 -65.25817336 36.57638574 -63.61328125 49.86328125 C-61.68683804 58.80015391 -58.0971153 65.7539488 -50.515625 71.05078125 C-42.4265801 75.89347645 -34.70835165 76.80376626 -25.40234375 75.1484375 C-12.34813652 71.62983938 -1.83910165 63.90254788 5.859375 52.80078125 C11.56394358 42.69090526 13.94233754 31.00612068 11.2890625 19.6328125 C8.46961892 11.04417135 4.10268434 4.09342482 -3.87890625 -0.421875 C-22.07510827 -8.63844154 -41.27803825 -0.01247056 -54.015625 13.61328125 Z M-20.015625 74.61328125 C-20.015625 74.94328125 -20.015625 75.27328125 -20.015625 75.61328125 C-15.065625 75.61328125 -10.115625 75.61328125 -5.015625 75.61328125 C-5.345625 74.62328125 -5.675625 73.63328125 -6.015625 72.61328125 C-13.23594706 72.31388255 -13.23594706 72.31388255 -20.015625 74.61328125 Z " fill="#1C384B" transform="translate(81.015625,23.38671875)"/>
<path d="M0 0 C1.32 0.33 2.64 0.66 4 1 C3.979375 2.134375 3.95875 3.26875 3.9375 4.4375 C3.58422523 7.81575674 3.58422523 7.81575674 5 9 C5.25 11.4375 5.25 11.4375 5 14 C4.01 14.66 3.02 15.32 2 16 C1.74969023 18.58380177 1.74969023 18.58380177 2 21 C2.66 21.33 3.32 21.66 4 22 C3.154375 23.010625 2.30875 24.02125 1.4375 25.0625 C-0.8425909 28.20082736 -1.00911527 28.80857938 -0.8125 32.9375 C-0.544375 33.948125 -0.27625 34.95875 0 36 C2.31 36.33 4.62 36.66 7 37 C3.69327106 42.26070513 -1.20462032 45.04963184 -7 47 C-9.3125 46.6328125 -9.3125 46.6328125 -11 46 C-10.67 45.4225 -10.34 44.845 -10 44.25 C-8.72924102 41.80116138 -8.72924102 41.80116138 -9 38 C-9.9075 37.566875 -10.815 37.13375 -11.75 36.6875 C-15 35 -15 35 -16.9375 33.375 C-19.07735561 31.71858561 -19.07735561 31.71858561 -22.5 31.625 C-26 31 -26 31 -28.4375 28.4375 C-28.953125 27.633125 -29.46875 26.82875 -30 26 C-29.67 25.34 -29.34 24.68 -29 24 C-27.68 24.66 -26.36 25.32 -25 26 C-24.79375 25.071875 -24.5875 24.14375 -24.375 23.1875 C-23 20 -23 20 -20 18.125 C-17 17 -17 17 -15 17 C-14.97294271 15.22925083 -14.95357805 13.45838289 -14.9375 11.6875 C-14.92589844 10.70136719 -14.91429687 9.71523438 -14.90234375 8.69921875 C-14.87670138 5.90036151 -14.87670138 5.90036151 -16 3 C-14.68 2.67 -13.36 2.34 -12 2 C-11.7525 3.11375 -11.505 4.2275 -11.25 5.375 C-10.38994661 9.04615198 -10.38994661 9.04615198 -7.875 10.4375 C-7.25625 10.623125 -6.6375 10.80875 -6 11 C-5.9175 10.401875 -5.835 9.80375 -5.75 9.1875 C-4.79055618 6.38912218 -3.3258784 5.7444088 -1 4 C-0.20376178 1.90584196 -0.20376178 1.90584196 0 0 Z " fill="#2189B7" transform="translate(66,36)"/>
<path d="M0 0 C6.43892333 4.52999521 9.73245741 11.05511001 11.671875 18.62109375 C13.28873821 30.65132599 9.15616086 41.44622434 2.4375 51.2890625 C-4.7797041 60.27586953 -15.5693153 66.25593317 -26.9375 67.8125 C-35.469763 68.42661388 -42.25864503 66.25180729 -49 61 C-54.76473394 55.39539756 -57.14172482 48.04782575 -57.47705078 40.14208984 C-57.61673174 27.48461715 -53.61052787 17.13988655 -45 7.83984375 C-33.36763335 -3.27322082 -14.54015351 -9.36582452 0 0 Z M-46.1875 12.0625 C-53.68146823 20.93110146 -56.01746683 30.97519523 -55.41796875 42.32421875 C-54.51644295 50.25259051 -50.98451096 56.69325293 -45 62 C-39.77469516 65.01459895 -34.02517131 66.2119407 -28 66 C-25.75496799 65.09514196 -25.75496799 65.09514196 -24 64 C-24.70125 63.79246094 -25.4025 63.58492188 -26.125 63.37109375 C-35.49347765 60.32888429 -42.14810108 55.77074035 -47 47 C-50.03491567 39.23677368 -50.61274092 29.96089497 -47.4375 22.125 C-43.67724724 15.06466527 -39.03132785 9.68645094 -31.48828125 6.7421875 C-27.06284442 5.42219849 -22.56678974 4.64874023 -18 4 C-18 4.66 -18 5.32 -18 6 C-18.58265625 6.00257812 -19.1653125 6.00515625 -19.765625 6.0078125 C-27.34473812 6.36531784 -33.66846879 8.80679482 -40 13 C-40.33 13.99 -40.66 14.98 -41 16 C-41.66 16 -42.32 16 -43 16 C-48.69148915 23.50056963 -49.05862123 30.82195365 -48 40 C-46.09604157 47.69423202 -41.13577772 54.38659445 -34.453125 58.609375 C-27.68942775 62.01033011 -21.26386801 63.64798814 -13.87890625 61.3359375 C-3.68522535 56.76567121 2.13264538 48.73470925 7 39 C7.85662519 30.28548603 6.49393548 22.75567506 1 15.8125 C-3.23326622 11.26970464 -8.45135819 8.64889953 -14 6 C-4.86720609 8.75154688 -4.86720609 8.75154688 -1 12 C-0.34 12 0.32 12 1 12 C3.33333333 16.66666667 5.66666667 21.33333333 8 26 C8.66 26 9.32 26 10 26 C9.23172514 17.4297615 8.08927235 10.39573463 2 4 C-14.05869324 -8.62838637 -33.30444667 -1.06090881 -46.1875 12.0625 Z " fill="#0F3245" transform="translate(78,28)"/>
<path d="M0 0 C0.66 0 1.32 0 2 0 C2 0.66 2 1.32 2 2 C3.32 2.33 4.64 2.66 6 3 C6.36625971 7.51720311 6.36625971 7.51720311 4.625 9.8125 C3 11 3 11 1 11 C0.67 12.32 0.34 13.64 0 15 C-1.8125 14.9375 -1.8125 14.9375 -4 14 C-5.75 10.4375 -5.75 10.4375 -7 7 C-7.99 7 -8.98 7 -10 7 C-9.01 8.485 -9.01 8.485 -8 10 C-7.79330974 13.78932146 -7.61832325 17.42821862 -9 21 C-10.77734375 22.08984375 -10.77734375 22.08984375 -12.9375 22.9375 C-16.42699268 24.48945082 -16.42699268 24.48945082 -18.5 27.75 C-18.665 28.4925 -18.83 29.235 -19 30 C-20.32 29.67 -21.64 29.34 -23 29 C-22.505 29.61875 -22.01 30.2375 -21.5 30.875 C-20 33 -20 33 -20 35 C-19.34 35.33 -18.68 35.66 -18 36 C-18.99 36.66 -19.98 37.32 -21 38 C-26.17742029 34.08817134 -29.31712723 30.84115931 -30.5 24.1875 C-29.76924174 19.52891612 -27.46750287 15.96562962 -25 12 C-24.34 12 -23.68 12 -23 12 C-22.773125 11.39542969 -22.54625 10.79085937 -22.3125 10.16796875 C-19.72741432 5.89796115 -14.55139761 4.55413577 -10 3 C-6.65923175 2.38936951 -3.39324481 2.0809668 0 2 C0 1.34 0 0.68 0 0 Z " fill="#3EA959" transform="translate(60,32)"/>
<path d="M0 0 C2 1 2 1 3.3125 3.875 C5.16052625 7.29727082 6.56202925 8.32747369 10 10 C10.66 9.34 11.32 8.68 12 8 C14.70641598 7.4587168 16.36446425 7.6166836 18.7421875 9.05078125 C19.95770641 9.93503213 21.16101952 10.83630434 22.3515625 11.75390625 C24.13581357 13.10266476 25.95403196 14.09977406 28 15 C27.8125 18.25 27.8125 18.25 27 22 C24.5 24.1875 24.5 24.1875 22 26 C21.13034494 28.12946603 21.13034494 28.12946603 21 30 C13.15500183 27.75857195 7.6080211 23.66056146 3 17 C-0.03180369 11.4360157 -0.3902699 6.24431845 0 0 Z " fill="#3EAA58" transform="translate(30,59)"/>
<path d="M0 0 C0.66 0 1.32 0 2 0 C2.33 3.63 2.66 7.26 3 11 C3.33 7.37 3.66 3.74 4 0 C10.93359375 0.5859375 10.93359375 0.5859375 13 1 C14.26026798 3.52053595 13.91874445 4.8542098 13.5625 7.625 C13.46066406 8.44226563 13.35882813 9.25953125 13.25390625 10.1015625 C13.17011719 10.72804688 13.08632812 11.35453125 13 12 C11.02 12.33 9.04 12.66 7 13 C9.97 13.33 12.94 13.66 16 14 C16.33 17.96 16.66 21.92 17 26 C11.78297811 24.69574453 9.94773782 22.0184464 6.4140625 18.12890625 C3.67178622 15.71055581 1.5081961 14.93273468 -2 14 C-2.69867188 13.79117188 -3.39734375 13.58234375 -4.1171875 13.3671875 C-4.69726562 13.20476562 -5.27734375 13.04234375 -5.875 12.875 C-6.90625 12.58625 -7.9375 12.2975 -9 12 C-8.01 11.67 -7.02 11.34 -6 11 C-6.99 10.01 -7.98 9.02 -9 8 C-8.375 6.125 -8.375 6.125 -7 4 C-5.02111039 3.27306096 -3.02045442 2.60183749 -1 2 C-0.67 1.34 -0.34 0.68 0 0 Z " fill="#1C3A4B" transform="translate(85,89)"/>
<path d="M0 0 C3.83017442 1.45677574 4.99837037 3.23117787 6.75 6.875 C7.17796875 7.73867188 7.6059375 8.60234375 8.046875 9.4921875 C9 12 9 12 9 16 C6.03 15.505 6.03 15.505 3 15 C2.67 15.99 2.34 16.98 2 18 C3.134375 18.12375 4.26875 18.2475 5.4375 18.375 C7.2009375 18.684375 7.2009375 18.684375 9 19 C10 21 10 21 9.546875 22.98828125 C6.25505443 32.58942457 6.25505443 32.58942457 4 35 C1.20537506 35.4214117 -1.14820144 35.23375398 -4 35 C-5.65221506 32.47308285 -6.0051473 31.12096146 -5.875 28.0625 C-4.8833074 24.5915759 -3.41367639 22.64725798 -1 20 C-1.66 19.01 -2.32 18.02 -3 17 C-2.8125 14.875 -2.8125 14.875 -2 13 C-1.01 12.67 -0.02 12.34 1 12 C0.4740625 10.700625 0.4740625 10.700625 -0.0625 9.375 C-1.068959 5.75174758 -0.86063519 3.6146678 0 0 Z " fill="#3DA95B" transform="translate(70,38)"/>
<path d="M0 0 C6.46847499 4.55078578 10.0552605 11.27630252 11.6015625 19.0078125 C11.83513837 21.35024478 11.98958776 23.64683381 12 26 C11.34 26.33 10.68 26.66 10 27 C9.85304688 26.09378906 9.70609375 25.18757813 9.5546875 24.25390625 C7.92594385 15.4081433 6.20245428 8.06232157 -1.12109375 2.34375 C-8.86539224 -2.23416044 -17.43981306 -2.27110276 -26.05859375 -0.30078125 C-36.55482318 3.14943564 -45.24299955 10.10267847 -50.546875 19.83984375 C-54.60407161 29.05970909 -55.83988844 38.97319201 -53.265625 48.8046875 C-52.34524749 51.04527864 -51.32402244 52.9750245 -50 55 C-49.62617187 55.58265625 -49.25234375 56.1653125 -48.8671875 56.765625 C-45.99380329 60.6856061 -42.6623613 62.88036485 -38 64 C-34.0052656 64.51060515 -30.02184583 64.80848353 -26 65 C-27.14453125 66.53125 -27.14453125 66.53125 -29 68 C-37.85296042 68.10492398 -45.01550734 64.8738123 -51.25 58.8125 C-57.47187915 48.81305136 -58.83578137 38.3332098 -56.3046875 26.84375 C-52.58202651 15.70704991 -45.52411606 6.10869752 -35.1171875 0.42578125 C-23.90395759 -4.7921084 -11.01037206 -7.09216809 0 0 Z " fill="#153347" transform="translate(78,28)"/>
<path d="M0 0 C0.66 0 1.32 0 2 0 C0.66928361 9.53680079 0.66928361 9.53680079 -2.58203125 12.38671875 C-7.12220483 15.72255155 -10.4685836 17.13677164 -16.1875 17.0625 C-17.08855469 17.05347656 -17.98960938 17.04445313 -18.91796875 17.03515625 C-19.60503906 17.02355469 -20.29210938 17.01195313 -21 17 C-21.625 14.625 -21.625 14.625 -22 12 C-19.71514139 9.71514139 -19.01870913 9.70647543 -15.9375 9.25 C-9.63718379 7.98585888 -4.51032751 4.51032751 0 0 Z " fill="#195E88" transform="translate(73,73)"/>
<path d="M0 0 C3.125 0.375 3.125 0.375 5.5625 2.125 C7.125 4.375 7.125 4.375 7.1875 6.4375 C5.70010923 9.14980081 3.86626563 10.03779726 1.125 11.375 C0.465 11.375 -0.195 11.375 -0.875 11.375 C-0.545 15.005 -0.215 18.635 0.125 22.375 C-0.865 22.375 -1.855 22.375 -2.875 22.375 C-2.875 19.075 -2.875 15.775 -2.875 12.375 C-6.175 12.375 -9.475 12.375 -12.875 12.375 C-12.545 11.715 -12.215 11.055 -11.875 10.375 C-9.895 10.375 -7.915 10.375 -5.875 10.375 C-5.689375 8.456875 -5.689375 8.456875 -5.5 6.5 C-5.09790778 2.34504702 -4.49260779 0.58599232 0 0 Z " fill="#0D3046" transform="translate(103.875,90.625)"/>
<path d="M0 0 C2 1 2 1 3.375 3.875 C4.71067486 7.0646652 4.71067486 7.0646652 7.1875 8.4375 C8.0846875 9.2109375 8.0846875 9.2109375 9 10 C8.95875 11.0725 8.9175 12.145 8.875 13.25 C9.02936832 17.8810496 10.35117517 19.14527149 13.4921875 22.32421875 C15.09396666 24.10443445 16.02345988 25.82411692 17 28 C10.3152231 26.83016404 6.81202163 22.23416657 3 17 C-0.14471655 11.50458171 -0.38887904 6.22206458 0 0 Z " fill="#2186B0" transform="translate(30,59)"/>
<path d="M0 0 C-0.33 3.3 -0.66 6.6 -1 10 C-1.66 10 -2.32 10 -3 10 C-3.33 10.66 -3.66 11.32 -4 12 C-7.3 11.67 -10.6 11.34 -14 11 C-12.8464091 6.3856364 -11.45890656 5.13714781 -8 2 C-6.9790625 1.071875 -6.9790625 1.071875 -5.9375 0.125 C-4 -1 -4 -1 0 0 Z " fill="#173C48" transform="translate(106,77)"/>
<path d="M0 0 C0 0.99 0 1.98 0 3 C3.3 3.33 6.6 3.66 10 4 C10.33 3.01 10.66 2.02 11 1 C13 4.75 13 4.75 13 7 C11.824375 7.12375 11.824375 7.12375 10.625 7.25 C7.85250896 7.72806339 7.85250896 7.72806339 6.6875 10.0625 C6.3471875 11.0215625 6.3471875 11.0215625 6 12 C6 10.02 6 8.04 6 6 C3.03 5.34 0.06 4.68 -3 4 C-3 7.96 -3 11.92 -3 16 C-3.66 15.67 -4.32 15.34 -5 15 C-5 11.37 -5 7.74 -5 4 C-5.66 4 -6.32 4 -7 4 C-7.33 4.99 -7.66 5.98 -8 7 C-9.98 7.33 -11.96 7.66 -14 8 C-13.34 7.01 -12.68 6.02 -12 5 C-11.01 5 -10.02 5 -9 5 C-8.67 4.01 -8.34 3.02 -8 2 C-5.27366306 0.89786379 -2.95855967 0 0 0 Z " fill="#0B2D43" transform="translate(92,85)"/>
<path d="M0 0 C0 0.66 0 1.32 0 2 C4.29 2.33 8.58 2.66 13 3 C13 2.34 13 1.68 13 1 C13.99 1.33 14.98 1.66 16 2 C16 2.66 16 3.32 16 4 C12.33926646 5.22024451 8.96717727 5.14322742 5.15625 5.1328125 C4.00799744 5.13424759 4.00799744 5.13424759 2.83654785 5.13571167 C1.21931882 5.13639166 -0.39791295 5.13454997 -2.01513672 5.13037109 C-4.49062226 5.12502027 -6.96592636 5.13032216 -9.44140625 5.13671875 C-11.01302123 5.13605794 -12.5846361 5.13477671 -14.15625 5.1328125 C-15.26728088 5.13584885 -15.26728088 5.13584885 -16.40075684 5.13894653 C-19.53770149 5.12463282 -22.0010726 4.99964247 -25 4 C-25 3.34 -25 2.68 -25 2 C-24.01 2.02320312 -23.02 2.04640625 -22 2.0703125 C-14.49388289 2.19191521 -7.18618175 0 0 0 Z " fill="#0C2D42" transform="translate(63,96)"/>
<path d="M0 0 C5.7276904 4.2957678 9.66173217 8.55814963 10.75 15.9375 C10.87375 17.4534375 10.87375 17.4534375 11 19 C9.33388095 19.042721 7.66617115 19.04063832 6 19 C5.67 18.67 5.34 18.34 5 18 C3.65252916 17.76924918 2.29622435 17.58846937 0.9375 17.4375 C-0.361875 17.293125 -1.66125 17.14875 -3 17 C-2.34 15.68 -1.68 14.36 -1 13 C1.97 13.495 1.97 13.495 5 14 C4.72285156 13.24074219 4.44570312 12.48148438 4.16015625 11.69921875 C3.79792969 10.70535156 3.43570313 9.71148437 3.0625 8.6875 C2.52302734 7.20830078 2.52302734 7.20830078 1.97265625 5.69921875 C1.29114035 3.8079437 0.6357189 1.90715671 0 0 Z " fill="#1F715A" transform="translate(74,40)"/>
<path d="M0 0 C2.89201559 2.89201559 2.76973815 5.61548755 3.1015625 9.5859375 C3 12 3 12 1.25 14.5 C-4 18 -4 18 -6.9375 17.75 C-11.97979798 16.51515152 -11.97979798 16.51515152 -14 15 C-15.85439303 11.02630066 -16.46716114 8.17576632 -15 4 C-11.43332721 -1.06842975 -5.58820305 -1.52405538 0 0 Z M-14 5 C-13.90527266 7.9365476 -13.81161185 10.22606636 -13 13 C-10.87454636 15.22556103 -10.87454636 15.22556103 -8 16 C-5.17142864 15.86202091 -3.27272768 15.11793629 -0.6875 14 C1.73153924 11.13299053 1.3958428 8.70682639 1.3359375 5.05859375 C1.16989352 2.78056638 1.16989352 2.78056638 -1 1 C-5.87352917 0.44618987 -10.40749429 1.40749429 -14 5 Z " fill="#223B4D" transform="translate(108,14)"/>
<path d="M0 0 C7.23670681 1.97803319 12.5627976 4.1325145 16.6640625 10.640625 C20.14182845 17.0687232 21.96760555 22.67885404 22 30 C21.34 30.33 20.68 30.66 20 31 C19.85304688 30.09378906 19.70609375 29.18757813 19.5546875 28.25390625 C18.13490758 20.54303256 16.77183375 13.62236395 11 8 C7.47139674 5.66217883 3.85182309 3.74771333 0 2 C0 1.34 0 0.68 0 0 Z " fill="#1F3A4D" transform="translate(68,24)"/>
<path d="M0 0 C6.93359375 0.5859375 6.93359375 0.5859375 9 1 C10.43088528 3.86177057 9.59991697 5.93375773 9 9 C6.03 9 3.06 9 0 9 C0 6.03 0 3.06 0 0 Z " fill="#389F55" transform="translate(89,89)"/>
<path d="M0 0 C0.66 0 1.32 0 2 0 C4.98459743 10.11851324 2.82022914 20.4354847 -1 30 C-1.66 30.99 -2.32 31.98 -3 33 C-3.66 32.67 -4.32 32.34 -5 32 C-4.72285156 31.33613281 -4.44570312 30.67226562 -4.16015625 29.98828125 C-3.79792969 29.10527344 -3.43570313 28.22226563 -3.0625 27.3125 C-2.52302734 26.00732422 -2.52302734 26.00732422 -1.97265625 24.67578125 C0.04489223 19.12549728 0.12609247 14.0233319 0.0625 8.1875 C0.05798828 7.39923828 0.05347656 6.61097656 0.04882812 5.79882812 C0.03711312 3.86585239 0.01917998 1.93291607 0 0 Z " fill="#133247" transform="translate(92,42)"/>
<path d="M0 0 C0.70125 0.7425 1.4025 1.485 2.125 2.25 C8.65298587 8.49416039 14.65208625 10.8123539 23.5625 11.125 C24.366875 11.08375 25.17125 11.0425 26 11 C24.85546875 12.53125 24.85546875 12.53125 23 14 C15.55522922 14.08823432 8.67250791 11.79981439 3 7 C0.5 4.1875 0.5 4.1875 -1 2 C-0.67 1.34 -0.34 0.68 0 0 Z " fill="#1F3A4C" transform="translate(26,82)"/>
<path d="M0 0 C5.75 2.625 5.75 2.625 8 6 C4.55930376 8.29379749 3.27709699 9 -1 9 C-1.625 5.625 -1.625 5.625 -2 2 C-1.34 1.34 -0.68 0.68 0 0 Z " fill="#1D7FAC" transform="translate(101,91)"/>
<path d="M0 0 C1.2380014 3.57644848 0.74926071 6.33694766 0 10 C-3.3 9.67 -6.6 9.34 -10 9 C-6.83047153 5.73991357 -3.60062011 2.77762123 0 0 Z " fill="#3AA255" transform="translate(102,79)"/>
<path d="M0 0 C2.97 0 5.94 0 9 0 C9 2.97 9 5.94 9 9 C5.07399037 7.03699519 2.90350441 5.22611601 0 2 C0 1.34 0 0.68 0 0 Z " fill="#1F714C" transform="translate(92,103)"/>
<path d="M0 0 C12.07517084 6.92938497 12.07517084 6.92938497 14 13 C7.41218356 11.84713212 3.79228952 7.15905376 0 2 C0 1.34 0 0.68 0 0 Z " fill="#1A5E85" transform="translate(33,74)"/>
<path d="M0 0 C0 0.66 0 1.32 0 2 C-1.30324219 2.29003906 -1.30324219 2.29003906 -2.6328125 2.5859375 C-3.78523438 2.84632812 -4.93765625 3.10671875 -6.125 3.375 C-7.26195312 3.63023438 -8.39890625 3.88546875 -9.5703125 4.1484375 C-12.78398288 4.94636477 -15.87566034 5.90790559 -19 7 C-18.67 6.01 -18.34 5.02 -18 4 C-11.86540145 0.93270073 -6.7986259 -0.15810758 0 0 Z " fill="#0E3143" transform="translate(60,32)"/>
<path d="M0 0 C0.66 0 1.32 0 2 0 C0.64527694 5.58823264 -3.58113173 8.69001754 -8 12 C-9.31464089 12.70280975 -10.6432185 13.38245147 -12 14 C-11.64390034 11.15745009 -11.15947851 10.14512232 -9.00390625 8.18359375 C-7.79541016 7.31927734 -7.79541016 7.31927734 -6.5625 6.4375 C-3.65490509 4.34197815 -2.01589864 3.02384796 0 0 Z " fill="#18394B" transform="translate(79,76)"/>
<path d="M0 0 C0 2.31 0 4.62 0 7 C-4.75 6.125 -4.75 6.125 -7 5 C-5.22678182 1.07358831 -4.52021524 0 0 0 Z " fill="#F4B037" transform="translate(83,92)"/>
<path d="M0 0 C0.33 0.99 0.66 1.98 1 3 C1.99 3 2.98 3 4 3 C4 3.66 4 4.32 4 5 C3.07767578 5.09087891 3.07767578 5.09087891 2.13671875 5.18359375 C1.32847656 5.26738281 0.52023438 5.35117188 -0.3125 5.4375 C-1.11300781 5.51871094 -1.91351563 5.59992188 -2.73828125 5.68359375 C-5.16087179 5.95265693 -5.16087179 5.95265693 -8 7 C-8 6.01 -8 5.02 -8 4 C-5.36 2.68 -2.72 1.36 0 0 Z " fill="#1A374A" transform="translate(71,91)"/>
<path d="M0 0 C2.64 0 5.28 0 8 0 C7.34 1.98 6.68 3.96 6 6 C4.125 5.8125 4.125 5.8125 2 5 C0.75 2.4375 0.75 2.4375 0 0 Z " fill="#33874D" transform="translate(45,83)"/>
<path d="M0 0 C2.97 0 5.94 0 9 0 C9 0.99 9 1.98 9 3 C6.03 3 3.06 3 0 3 C0 2.01 0 1.02 0 0 Z " fill="#21764D" transform="translate(89,98)"/>
<path d="M0 0 C2.97 0.495 2.97 0.495 6 1 C6 1.99 6 2.98 6 4 C3.36 4 0.72 4 -2 4 C-1.34 2.68 -0.68 1.36 0 0 Z " fill="#2189B8" transform="translate(73,53)"/>
<path d="M0 0 C1.32 0.66 2.64 1.32 4 2 C3.34 3.32 2.68 4.64 2 6 C1.01 5.67 0.02 5.34 -1 5 C-0.67 3.35 -0.34 1.7 0 0 Z " fill="#3EAA5B" transform="translate(66,44)"/>
<path d="M0 0 C-3.44069624 2.29379749 -4.72290301 3 -9 3 C-9 2.34 -9 1.68 -9 1 C-3.375 -1.125 -3.375 -1.125 0 0 Z " fill="#155981" transform="translate(109,97)"/>
<path d="M0 0 C0 0.99 0 1.98 0 3 C-2.31 3.66 -4.62 4.32 -7 5 C-5.22678182 1.07358831 -4.52021524 0 0 0 Z " fill="#E19D37" transform="translate(83,92)"/>
<path d="M0 0 C0.99 0.33 1.98 0.66 3 1 C4.1875 4.0625 4.1875 4.0625 5 7 C4.01 7 3.02 7 2 7 C1.34 4.69 0.68 2.38 0 0 Z " fill="#274152" transform="translate(89,35)"/>
</svg>
